<?xml version="1.0" encoding="UTF-8"?>
<svg  xmlns="http://www.w3.org/2000/svg" viewBox="0 0 489.5 421.5">
<title>펀잇의 캐릭터</title>
<desc>
상품 미리보기 사진입니다.
</desc>
  <defs>
    <style>
      .cls-1 {
        stroke: #020202;
        stroke-width: 6px;
      }

      .cls-1, .cls-2 {
        fill: none;
        stroke-linecap: round;
        stroke-miterlimit: 10;
      }

      .cls-3 {
        fill: #050505;
      }

      .cls-4 {
        fill: #fff;
      }

      .cls-5 {
        fill: #fcf1bb;
      }

      .cls-6 {
        fill: #fc8d98;
      }

      .cls-7 {
        fill: #e1f4ff;
      }

      .cls-2 {
        stroke: #dd546e;
        stroke-width: 2.5px;
      }
    </style>
  </defs>
  <path class="cls-5" d="m109.12,278.44s-37.41-10.78-41.36-72.66c-3.95-61.88,2.26-93.51,2.26-93.51,0,0,7.91-19.95,24.66-3.95l14.68,28.24s8.8,17.79,9.36,20.89,4.25,3.39,6.01-.28c1.76-3.67,7.4-38.4,7.4-38.4,0,0,1.98-18.92,12.14-19.2,10.16-.28,10.17.99,10.17.99,0,0,8.18,5.93,11.28,20.75,3.11,14.82,8.33,33.6,8.33,33.6,0,0,2.68,7.06,5.51,1.41,2.82-5.65,9.32-45.04,9.32-45.04,0,0,4.24-14.82,11.58-16.38,7.34-1.55,12.85-1.98,15.11,0,2.26,1.98,6.92,5.08,9.74,18.07,2.82,12.99,11.29,73.27,10.16,89.08s0,41.2-9.6,52.79c-9.6,11.59-30.28,23.31-31.98,23.31-.04,0-5.97,1.38-6,1.41-.55.5,5.13,8.11,7.34,12.99.35.78,7.46,13.61,1.55,28.66-4.82,12.26-16.97,17.18-18.09,17.61-27.48,5.07-40.57-7.59-37.68-35.16,3.46-18.29,3.37-20.98,3.01-20.89-7.96,1.87-10.64.19-10.64.19,0,0-9.82-.17-24.28-4.52Z"/>
  <path class="cls-6" d="m170.25,253.88s.71,9.69,7.91,12.8,12-2.96,12-2.96c0,0,3.81-4.62.85-9.3s-11.86-7.36-11.86-7.36"/>
  <path class="cls-4" d="m179.35,200.5c2.85,20.97-11.41,37.77-27.02,38.89s-31.74-13.29-32.13-34.65c-.34-18.93,11.25-37.76,26.86-38.88s29.55,14.47,32.29,34.64Z"/>
  <path d="m167.05,212.52c1.58,11.87-5.38,21.3-13.86,21.9-8.48.61-16.81-7.62-16.84-19.7s5.38-21.3,13.86-21.9c8.48-.61,15.32,8.29,16.84,19.7Z"/>
  <path class="cls-1" d="m120.07,248.89s34.51,27.29,63.26-6.31"/>
  <line class="cls-2" x1="178.7" y1="254.43" x2="182.19" y2="258.39"/>
  <circle class="cls-4" cx="161.95" cy="204.5" r="3.72"/>
  <path class="cls-7" d="m308.87,290.76s-65.19-17.52-54.66-80.37c10.53-62.85,41.02-86.08,41.02-86.08,0,0,7.27-9.33,18.3-15.78,7.45-4.36,16.78-6.9,29.04-6.8l18.63,1.92s15.14-3.18,35.18,27.67c23.93,36.85,27.73,77.41,25.43,105.27-2.34,28.42-14.73,47.6-70.72,57.43,0,0,10.79,19.71-2.14,34.95-8,9.43-22.96,9.15-22.96,9.15,0,0-27.81-5.34-24.68-25.3,4.23-27.03,7.56-22.07,7.56-22.07Z"/>
  <path class="cls-4" d="m368.35,195.49c-.29,21.16-16.89,35.66-32.48,34.46s-29.42-17.85-26.63-39.03c2.47-18.77,16.73-35.67,32.32-34.47s27.08,18.69,26.79,39.05Z"/>
  <path d="m354.4,205.55c-.2,11.97-8.48,20.26-16.95,19.61-8.47-.66-15.49-10.03-13.73-21.98s8.48-20.26,16.95-19.61,13.92,10.47,13.73,21.98Z"/>
  <circle class="cls-4" cx="350.54" cy="196.86" r="3.72"/>
  <path class="cls-3" d="m362.22,255.28c-.22,6.04-9.8,8.68-12.11,9.63-6.18,2.55-11.58,3.22-17.08,2.79-5.33-.41-10.61-1.91-16.2-5.15-2.66-1.54-11.13-6.45-10.64-12.82.04-.55.1-2.64,1.62-4.41,2.01-2.35,5.07-2.44,5.71-2.45,5.69-.4,12.27-.49,19.54.1,9.31.75,17.41,2.41,24.04,4.22.45.02,3.05,1.11,4.38,3.22,1.04,1.65.77,3.81.73,4.87Z"/>
  <path class="cls-4" d="m345.24,248.15c-.3,3.85-5.67,7.68-11.25,7.25s-9.71-5.85-9.42-9.7,4.79-3.02,10.37-2.59c5.58.43,10.6,1.19,10.3,5.04Z"/>
  <ellipse class="cls-5" cx="345.5" cy="97.91" rx="10.45" ry="5.84" transform="translate(139.86 392.31) rotate(-70.89)"/>
  <ellipse class="cls-5" cx="316.32" cy="101.73" rx="10.45" ry="5.84" transform="translate(116.63 367.31) rotate(-70.89)"/>
  <ellipse class="cls-5" cx="372.04" cy="104.02" rx="10.45" ry="5.84" transform="translate(151.95 421.5) rotate(-70.89)"/>
  <path class="cls-7" d="m131.02,90.55c.01-1.34.33-2.66.95-3.85.82-1.55,2.09-3.12,3.51-1.81,2.45,2.26,3.25,6.42,3.25,6.42,0,0,1.55,2.68,2.75-.49s1.27-5.93,3.18-7.84,4.66-1.34,5.29-.56,1.84,7.2,2.47,7.62c.57.38,2.55-5.9,2.98-7.28.07-.22.16-.42.27-.61.53-.87,1.67-1.42,3.73-.22,2.54,1.48,3.56,9.82,3.28,6.73-.03-.31.79,8.4,1.06,11.16.04.44-.02.88-.18,1.29-.47,1.18-1.53,3.61-2.27,3.93-.89.38-23.14,1.87-27.68,2.17-.84.06-1.7-.24-2.24-.89-.33-.39-.57-.94-.54-1.67.06-1.61.15-10.41.19-14.1Z"/>
</svg>