<?xml version="1.0" encoding="UTF-8"?>
<svg id="_레이어_2" data-name="레이어 2" xmlns="http://www.w3.org/2000/svg" xmlns:xlink="http://www.w3.org/1999/xlink" viewBox="0 0 427.3 72.71">
  <defs>
    <style>
      .cls-1, .cls-2, .cls-3, .cls-4 {
        fill: none;
      }

      .cls-5 {
        fill: #f8e699;
      }

      .cls-6 {
        fill: #e5959e;
      }

      .cls-7 {
        fill: #f2c8db;
      }

      .cls-8 {
        fill: #d7e6f6;
      }

      .cls-9, .cls-10 {
        fill: #231815;
      }

      .cls-10 {
        stroke: #060102;
        stroke-width: 2px;
      }

      .cls-10, .cls-2, .cls-11, .cls-3 {
        stroke-miterlimit: 10;
      }

      .cls-2, .cls-11, .cls-3 {
        stroke: #231815;
      }

      .cls-2, .cls-3 {
        stroke-linecap: round;
      }

      .cls-12 {
        stroke: #070001;
        stroke-miterlimit: 10;
        stroke-width: 1px;
      }

      .cls-12, .cls-11 {
        fill: #fff;
      }

      .cls-3 {
        stroke-width: 1.2px;
      }

      .cls-4 {
        clip-path: url(#clippath);
      }
    </style>
    <clipPath id="clippath">
      <path class="cls-1" d="m254.02,42.45c6.47,22.15-16.5,26.27-35.11,26.23-18.62-.03-46.18-1.53-40.53-24.11,4.92-19.6,20.32-43.16,38.94-43.12,18.62.03,30.78,20.48,36.7,41Z"/>
    </clipPath>
  </defs>
  <g id="_레이어_1-2" data-name="레이어 1">
    <g>
      <path class="cls-9" d="m13.13,43.98l.38,18.9c.07,2.92-.9,3.38-2.77,3.38H3.75c-2.33,0-2.93-.6-3-3.52L0,15.03c-.08-2.92.82-3.9,3.45-3.9h28.12c2.1,0,3.07.68,3.07,2.77v5.85c0,2.02-.98,2.77-3.07,2.77H12.83l.15,10.05h15.97c2.1,0,3.07.68,3.07,2.77v5.85c0,2.1-.97,2.77-3.07,2.77h-15.82Z"/>
      <path class="cls-9" d="m93.6,43.3c.3,6.97-.82,12.9-4.05,17.1-3.22,4.2-8.4,6.6-16.2,6.6-7.27,0-12.6-1.88-15.97-5.48-3.52-3.52-5.17-8.7-5.25-15.37l-.45-31.65c0-2.62.75-3.38,2.85-3.38h7.05c2.17,0,2.85.75,2.85,3.38l.38,32.25c0,3.68,1.2,6,2.92,7.27,1.73,1.27,3.83,1.65,5.7,1.57,2.02-.07,3.83-.82,5.25-2.4,1.27-1.58,2.02-4.12,1.95-8.02l-1.2-30.67c-.08-2.62.75-3.38,2.85-3.38h7.05c2.18,0,2.62.75,2.85,3.38l1.42,28.8Z"/>
      <path class="cls-9" d="m125.85,34.75l.45,28.12c.08,2.4-.45,3.38-2.85,3.38h-6.6c-2.47,0-2.85-.98-2.92-3.38l-.75-47.85c-.07-2.92.83-3.9,3.45-3.9h4.72c1.5,0,2.4.08,3.07.38.6.38,1.05.98,1.58,1.95l16.8,32.25V15.03c0-2.92.82-3.9,3.45-3.9h5.47c2.62,0,3.45.98,3.45,3.9v47.25c0,3-.75,3.98-3.38,3.98h-5.62c-2.92,0-4.05-.98-5.55-3.67l-14.77-27.82Z"/>
    </g>
    <g id="_레이어_1-2" data-name=" 레이어 1-2">
      <path class="cls-5" d="m253.57,39.02s-2.98-.91-1.71-5.24,3.63-7.67,3.63-7.67l-.74,6.78,3.35-5.14-.55,6.51,4.35-6.23s-1.1,6.59-1.91,8.31c-.82,1.81-1.72,4.33-4.43,3.43,0,0-10.45,30.07-11.17,31.79-.73,1.9-3.35,1.44-2.8-1s11.99-31.52,11.99-31.52h0Z"/>
      <path class="cls-10" d="m254.65,42c6.47,22.15-16.5,26.27-35.11,26.23-18.62-.03-46.27-1.53-40.62-24.11C183.84,24.52,199.24.97,217.86,1s30.87,20.48,36.8,41Z"/>
      <g class="cls-4">
        <ellipse class="cls-12" cx="225.44" cy="3.78" rx="9.85" ry="13.38" transform="translate(136.59 211.01) rotate(-67.75)"/>
      </g>
      <path class="cls-11" d="m235.86,41.79c3.23,11.12-7.98,13.63-17.29,13.61s-23.49-1.13-20.67-12.51c2.46-9.85,9.62-20.22,18.92-20.21s16.07,8.8,19.03,19.1Z"/>
      <circle class="cls-9" cx="207.66" cy="40.38" r="1.36"/>
      <circle class="cls-9" cx="225.47" cy="40.41" r="1.36"/>
      <path class="cls-2" d="m222.84,43.39s-1.36,1.17-.37,2.35"/>
      <path class="cls-3" d="m211.9,44.73c-.09,0,5.33,2.45,10.12-.16"/>
      <ellipse class="cls-7" cx="229.44" cy="43.13" rx="1.27" ry="2.71" transform="translate(185.88 272.49) rotate(-89.89)"/>
      <ellipse class="cls-7" cx="203.59" cy="43.09" rx="1.27" ry="2.71" transform="translate(160.13 246.6) rotate(-89.89)"/>
      <path class="cls-8" d="m179.37,43.67s-8.95-.74-6.58-10.22,8.77-2.15,8.77-2.15c0,0,4.51,4.53-.29,11.3l9.63,23.87s1.8,3.26,1.26,4.07-1.99,2.35-2.98.27c-.81-2.08-9.8-27.13-9.8-27.13Z"/>
      <ellipse class="cls-6" cx="224.47" cy="7.52" rx="1.54" ry="4.97" transform="translate(132.53 212.43) rotate(-67.75)"/>
      <circle class="cls-9" cx="238.73" cy="51.64" r="1.36"/>
    </g>
    <g>
      <path class="cls-9" d="m290.13,43.98l.22,10.88h16.65c2.1,0,3.08.75,3.08,2.77v5.77c0,2.1-.98,2.85-3.08,2.85h-25.87c-2.62,0-3.3-.98-3.38-3.98l-.67-47.25c-.08-2.92.83-3.9,3.45-3.9h28.87c2.1,0,3.08.68,3.08,2.77v5.85c0,2.02-.97,2.77-3.08,2.77h-19.57l.15,10.05h16.8c2.1,0,3.07.68,3.07,2.77v5.85c0,2.1-.97,2.77-3.07,2.77h-16.65Z"/>
      <path class="cls-9" d="m329.58,64.98c-1.72-.52-2.32-1.27-1.65-3.38l15.52-47.1c.83-2.47,1.65-3.38,4.05-3.38h7.88c2.4,0,3.22.9,4.05,3.38l15.52,47.1c.67,2.1.07,2.85-1.65,3.38l-7.05,1.95c-1.42.38-2.4-.15-2.92-1.73l-2.77-9h-18.3l-2.7,9c-.52,1.58-1.5,2.1-2.92,1.73l-7.05-1.95Zm21.82-38.85l-5.7,18.67h11.4l-5.7-18.67Z"/>
      <path class="cls-9" d="m398.05,22.53h-12.83c-2.1,0-3.07-.68-3.07-2.77v-5.85c0-2.1.97-2.77,3.07-2.77h39c2.1,0,3.08.68,3.08,2.77v5.85c0,2.1-.98,2.77-3.08,2.77h-13.42l.53,40.35c0,2.62-.67,3.38-2.85,3.38h-7.05c-2.1,0-2.85-.75-2.85-3.38l-.52-40.35Z"/>
    </g>
  </g>
</svg>