<?xml version="1.0" encoding="UTF-8"?>
<svg id="_레이어_2" data-name="레이어 2" xmlns="http://www.w3.org/2000/svg" viewBox="0 0 185.44 184.48">
  <defs>
    <style>
      .cls-1, .cls-2, .cls-3, .cls-4, .cls-5, .cls-6, .cls-7, .cls-8 {
        stroke-miterlimit: 10;
      }

      .cls-1, .cls-2, .cls-5, .cls-7 {
        fill: none;
      }

      .cls-1, .cls-2, .cls-8 {
        stroke-width: 1.5px;
      }

      .cls-1, .cls-5, .cls-8 {
        stroke-linecap: round;
      }

      .cls-1, .cls-8 {
        stroke: #ff817b;
      }

      .cls-2, .cls-3, .cls-4, .cls-5, .cls-6, .cls-7 {
        stroke: #000;
      }

      .cls-3 {
        fill: #bbe6f9;
      }

      .cls-3, .cls-4 {
        stroke-width: 1.8px;
      }

      .cls-4, .cls-6 {
        fill: #fffba9;
      }

      .cls-5 {
        stroke-width: 2.3px;
      }

      .cls-6, .cls-7 {
        stroke-width: 2px;
      }

      .cls-8 {
        fill: #ffa4a4;
      }
    </style>
  </defs>
  <g id="_레이어_1-2" data-name=" 레이어 1">
    <circle class="cls-7" cx="87.64" cy="99.21" r="81.32"/>
    <circle class="cls-2" cx="87.64" cy="99.21" r="63.67"/>
    <polygon class="cls-6" points="84.86 17.39 83.16 2.9 91.44 11.74 94.27 3.84 97.84 11.56 103.68 7.04 102.55 18.74 84.86 17.39"/>
    <path class="cls-4" d="m128.41,99.53s-6.73,4.94-14.02-4.34-10.71-19.39-10.71-19.39l13.45,11.85-5.75-14.86,13.14,11.15-6.4-18.77s12.4,12.42,14.85,16.78,6.55,10.05.15,14.38c0,0,47.95,68.13,50.6,72.23,2.84,4.39-2.26,9.26-6.52,4.34s-48.78-73.38-48.78-73.38h0Z"/>
    <path class="cls-3" d="m41.9,102.4s-12.04-23.53,10.92-35.01,17.69,17.88,17.69,17.88c0,0-2.45,19.42-23.34,19.95L13.05,172.93s-3.91,10.48-6.35,10.63-7.72-.73-5.08-6.78,40.28-74.38,40.28-74.38h0Z"/>
    <path class="cls-8" d="m99.6,133.55s-1.48-.34-2.05-1.83c-1.73-4.54-4.85-14.33-1.88-19.53,3.95-6.92,9.74-6.92,11.44-6.49,1.69.42,4.24,1.91,5.72,3.95s5.08,6.63,4.75,9.9c-.31,3.1-1.82,4.58-1.84,4.67"/>
    <line class="cls-1" x1="103.86" y1="114.93" x2="108.17" y2="124.15"/>
    <path class="cls-5" d="m58.13,118.9s6.12,8.76,18.06,13.76c9.81,4.11,23.37,4.15,35.76-5.18,5.31-4,9.22-9.01,12.61-17.92"/>
  </g>
</svg>